<svg width="60" height="60" viewBox="0 0 60 60" fill="none" xmlns="http://www.w3.org/2000/svg">
<g clip-path="url(#clip0_1_2)">
<path d="M30 60C46.5686 60 60 46.5685 60 30C60 13.4315 46.5686 0 30 0C13.4315 0 0 13.4315 0 30C0 46.5685 13.4315 60 30 60Z" fill="#0A0A0A"/>
<path d="M21.4455 39.8908C18.3007 39.8908 15.2278 38.2423 13.7394 35.4656C12.3791 32.9209 12.2991 29.416 13.5314 26.7273C14.4516 24.7187 16.0361 23.3744 17.9806 22.9503C20.4292 22.4061 22.4858 22.9663 24.4303 24.7107C25.0225 25.2469 25.0785 26.1591 24.5423 26.7513C24.0062 27.3434 23.0939 27.3994 22.5018 26.8633C21.2454 25.735 20.1491 25.4309 18.6127 25.775C17.2764 26.0711 16.5482 27.1114 16.1721 27.9356C15.3239 29.7761 15.3799 32.3688 16.3001 34.0972C17.7965 36.898 21.3015 37.5542 23.6941 36.5539C23.9182 36.4579 25.1025 35.8337 26.3188 35.1695C26.3188 32.1527 26.3188 22.014 26.3188 18.221H14.2756C13.4754 18.221 12.8272 17.5728 12.8272 16.7726C12.8272 15.9724 13.4754 15.3242 14.2756 15.3242H29.2156V16.7726C29.2156 19.9815 29.2156 35.9857 29.2156 36.0338L29.2076 36.89L28.4554 37.2981C27.7192 37.6982 25.2945 39.0105 24.8144 39.2186C23.7261 39.6747 22.5738 39.8908 21.4455 39.8908Z" fill="white"/>
<path d="M29.5514 51.0697C28.175 51.0697 26.8467 50.6056 25.7664 49.6854C23.8699 48.0769 23.2377 45.4922 24.11 42.9396C25.2222 39.6827 28.8472 38.6264 30.9358 38.2823L30.7917 33.385C30.6077 27.0633 33.5685 23.1423 38.7059 22.8942C40.8184 22.7902 42.923 23.4704 44.4834 24.7587C46.1879 26.1671 47.2121 28.4637 47.2041 30.9043C47.2041 33.8331 45.9558 36.4818 43.7872 38.1703C41.8667 39.6667 39.426 40.2348 37.2735 39.6907C36.4573 39.4826 35.9691 38.6584 36.1692 37.8422C36.3772 37.026 37.2015 36.5378 38.0177 36.7379C39.266 37.058 40.7304 36.6899 41.9147 35.7696C42.7549 35.1215 44.1553 33.6171 44.1633 30.9043C44.1633 29.3839 43.5471 27.9355 42.5469 27.1033C41.5626 26.2871 40.2183 25.863 38.8499 25.927C34.5287 26.1351 33.7365 30.0481 33.8326 33.297L34.0566 41.1151L32.5362 41.1631C32.4962 41.1631 27.847 41.3951 26.9827 43.9238C26.5186 45.2922 26.7987 46.5805 27.7349 47.3727C28.6872 48.1809 30.0235 48.253 31.3119 47.5648C32.0481 47.1647 32.9763 47.4448 33.3684 48.189C33.7685 48.9252 33.4885 49.8534 32.7443 50.2455C31.704 50.7976 30.6157 51.0697 29.5514 51.0697Z" fill="white"/>
</g>
<defs>
<clipPath id="clip0_1_2">
<rect width="60" height="60" fill="white"/>
</clipPath>
</defs>
</svg>
